<svg data-v-fde0c5aa="" xmlns="http://www.w3.org/2000/svg" viewBox="0 0 300 300" class="iconLeft"><!----><defs data-v-fde0c5aa=""><!----></defs><rect data-v-fde0c5aa="" fill="transparent" x="0" y="0" width="300px" height="300px" class="logo-background-square"></rect><defs data-v-fde0c5aa=""><linearGradient data-v-fde0c5aa="" gradientTransform="rotate(25)" id="33742e13-d37a-41ad-9f24-a7b287bdc7d2" x1="0%" y1="0%" x2="100%" y2="0%"><stop data-v-fde0c5aa="" offset="0%" stop-color="#D6D6D6" stop-opacity="1"></stop><stop data-v-fde0c5aa="" offset="100%" stop-color="#0000EE" stop-opacity="1"></stop></linearGradient></defs><g data-v-fde0c5aa="" id="0cf26f5a-6d36-4619-854f-bcc1e1bf7029" fill="url(#33742e13-d37a-41ad-9f24-a7b287bdc7d2)" transform="matrix(3.408674955368042,0,0,3.408674955368042,129.79127850707556,111.63243368628063)"><path d="M2.23 7.48L2.23 7.48L2.23 7.48Q1.63 7.48 1.32 7.18L1.32 7.18L1.32 7.18Q1.01 6.89 1.01 6.47L1.01 6.47L1.01 6.47Q1.01 6.05 1.35 5.77L1.35 5.77L1.35 5.77Q1.69 5.50 2.25 5.50L2.25 5.50L2.25 5.50Q2.81 5.50 3.14 5.78L3.14 5.78L3.14 5.78Q3.47 6.06 3.47 6.47L3.47 6.47L3.47 6.47Q3.47 6.89 3.14 7.18L3.14 7.18L3.14 7.18Q2.82 7.48 2.23 7.48ZM0.33 17.01L-0.12 16.13L0.21 15.89L0.21 15.89Q0.61 15.58 0.78 15.35L0.78 15.35L0.78 15.35Q0.96 15.12 1.10 14.88L1.10 14.88L1.10 14.88Q1.24 14.64 1.33 14.38L1.33 14.38L1.33 14.38Q1.52 13.79 1.52 13.06L1.52 13.06L1.52 9.83L0.51 9.26L0.68 8.36L2.88 8.21L3.17 8.48L3.17 13.37L3.17 13.37Q3.17 15.47 1.37 16.53L1.37 16.53L1.37 16.53Q1.05 16.71 0.66 16.89L0.66 16.89L0.33 17.01ZM12.08 14.40L7.38 14.40L7.50 13.67L8.70 13.24L8.70 7.18L7.47 6.92L7.55 6.12L7.55 6.12Q9.82 5.78 11.40 5.78L11.40 5.78L11.40 5.78Q13.39 5.78 14.22 6.55L14.22 6.55L14.22 6.55Q14.87 7.16 14.87 8.34L14.87 8.34L14.87 8.34Q14.87 9.53 13.92 10.36L13.92 10.36L13.92 10.36Q12.98 11.18 11.59 11.18L11.59 11.18L11.59 11.18Q11.38 11.18 10.97 11.16L10.97 11.16L10.81 10.28L11.05 10.27L11.05 10.27Q11.97 10.26 12.43 9.82L12.43 9.82L12.43 9.82Q12.90 9.39 12.90 8.59L12.90 8.59L12.90 8.59Q12.90 7.80 12.46 7.29L12.46 7.29L12.46 7.29Q12.02 6.79 11.15 6.79L11.15 6.79L11.15 6.79Q10.86 6.79 10.58 6.84L10.58 6.84L10.58 13.18L12.20 13.58L12.08 14.40ZM16.75 12.71L16.75 12.71L16.75 12.71Q16.75 12.96 16.93 13.16L16.93 13.16L16.93 13.16Q17.10 13.36 17.48 13.36L17.48 13.36L17.48 13.36Q17.85 13.36 18.28 12.95L18.28 12.95L18.28 11.57L18.28 11.57Q16.75 11.83 16.75 12.71ZM15.14 13.18L15.14 13.18L15.14 13.18Q15.14 12.29 15.95 11.67L15.95 11.67L15.95 11.67Q16.76 11.04 18.28 10.99L18.28 10.99L18.28 10.47L18.28 10.47Q18.28 9.85 18.01 9.43L18.01 9.43L18.01 9.43Q17.75 9.02 17.32 9.02L17.32 9.02L17.32 9.02Q16.89 9.02 16.78 9.32L16.78 9.32L16.78 9.32Q16.66 9.62 16.59 10.49L16.59 10.49L16.59 10.49Q15.67 10.49 15.44 10.11L15.44 10.11L15.44 10.11Q15.33 9.94 15.33 9.63L15.33 9.63L15.33 9.63Q15.33 9.32 15.78 8.94L15.78 8.94L15.78 8.94Q16.22 8.56 16.87 8.32L16.87 8.32L16.87 8.32Q17.53 8.08 18.11 8.08L18.11 8.08L18.11 8.08Q19.89 8.08 19.89 10.18L19.89 10.18L19.89 12.56L19.89 12.56Q19.89 12.84 19.91 12.90L19.91 12.90L19.91 12.90Q19.93 12.96 19.96 13.04L19.96 13.04L19.96 13.04Q20.00 13.13 20.04 13.15L20.04 13.15L20.04 13.15Q20.08 13.18 20.15 13.23L20.15 13.23L20.15 13.23Q20.26 13.30 20.54 13.35L20.54 13.35L20.80 13.40L20.67 14.27L20.67 14.27Q20.24 14.54 19.65 14.54L19.65 14.54L19.65 14.54Q19.06 14.54 18.82 14.30L18.82 14.30L18.82 14.30Q18.58 14.05 18.47 13.54L18.47 13.54L18.39 13.52L18.39 13.52Q18.22 13.90 17.72 14.23L17.72 14.23L17.72 14.23Q17.21 14.56 16.57 14.56L16.57 14.56L16.57 14.56Q15.93 14.56 15.53 14.20L15.53 14.20L15.53 14.20Q15.14 13.84 15.14 13.18ZM23.65 12.10L23.65 12.10Q23.65 12.69 23.87 12.95L23.87 12.95L23.87 12.95Q24.10 13.20 24.58 13.20L24.58 13.20L24.58 13.20Q25.05 13.20 25.53 12.91L25.53 12.91L25.70 13.55L25.70 13.55Q25.40 13.98 24.87 14.27L24.87 14.27L24.87 14.27Q24.35 14.55 23.55 14.55L23.55 14.55L23.55 14.55Q22.76 14.55 22.35 14.10L22.35 14.10L22.35 14.10Q21.94 13.64 21.95 12.50L21.95 12.50L21.97 9.45L21.20 9.45L21.20 8.76L21.20 8.76Q22.17 8.10 22.94 7L22.94 7L23.68 7L23.68 8.50L25.58 8.50L25.51 9.47L23.66 9.47L23.65 12.10ZM29.42 14.40L25.90 14.40L26.00 13.60L27.01 13.22L27.01 7.22L25.87 6.69L26.00 5.87L28.32 5.70L28.61 5.97L28.61 8.42L28.49 9.24L28.57 9.26L28.57 9.26Q29.61 8.15 30.60 8.15L30.60 8.15L30.60 8.15Q31.40 8.15 31.83 8.61L31.83 8.61L31.83 8.61Q32.27 9.07 32.27 10.17L32.27 10.17L32.27 13.23L33.28 13.57L33.16 14.40L30.13 14.40L30.17 13.62L30.63 13.23L30.65 10.95L30.65 10.95Q30.65 10.31 30.39 10.02L30.39 10.02L30.39 10.02Q30.13 9.73 29.65 9.73L29.65 9.73L29.65 9.73Q29.16 9.73 28.66 10.21L28.66 10.21L28.66 13.22L29.55 13.56L29.42 14.40ZM35.75 14.64L35.75 14.64L35.75 14.64Q34.77 14.64 34.13 14.26L34.13 14.26L34.13 14.26Q33.49 13.89 33.49 13.41L33.49 13.41L33.49 13.41Q33.49 12.92 33.78 12.65L33.78 12.65L33.78 12.65Q34.08 12.39 34.60 12.35L34.60 12.35L34.60 12.35Q34.79 13.04 35.13 13.40L35.13 13.40L35.13 13.40Q35.46 13.75 35.87 13.75L35.87 13.75L35.87 13.75Q36.70 13.75 36.70 13.19L36.70 13.19L36.70 13.19Q36.70 12.78 35.92 12.41L35.92 12.41L35.92 12.41Q35.12 12.03 34.47 11.55L34.47 11.55L34.47 11.55Q34.13 11.31 33.91 10.93L33.91 10.93L33.91 10.93Q33.69 10.55 33.69 10.17L33.69 10.17L33.69 10.17Q33.69 9.78 33.82 9.45L33.82 9.45L33.82 9.45Q33.95 9.12 34.22 8.80L34.22 8.80L34.22 8.80Q34.49 8.48 34.97 8.28L34.97 8.28L34.97 8.28Q35.45 8.08 36.20 8.08L36.20 8.08L36.20 8.08Q36.95 8.08 37.49 8.38L37.49 8.38L37.49 8.38Q38.04 8.68 38.04 9.18L38.04 9.18L38.04 9.18Q38.04 9.67 37.71 9.96L37.71 9.96L37.71 9.96Q37.39 10.25 36.91 10.29L36.91 10.29L36.77 9.86L36.77 9.86Q36.52 8.87 35.74 8.87L35.74 8.87L35.74 8.87Q35.43 8.87 35.25 9.06L35.25 9.06L35.25 9.06Q35.07 9.24 35.07 9.50L35.07 9.50L35.07 9.50Q35.07 9.76 35.30 9.98L35.30 9.98L35.30 9.98Q35.53 10.21 35.88 10.38L35.88 10.38L35.88 10.38Q36.23 10.55 36.63 10.78L36.63 10.78L36.63 10.78Q37.04 11.01 37.39 11.25L37.39 11.25L37.39 11.25Q37.73 11.49 37.97 11.87L37.97 11.87L37.97 11.87Q38.20 12.26 38.20 12.71L38.20 12.71L38.20 12.71Q38.20 13.58 37.46 14.11L37.46 14.11L37.46 14.11Q36.73 14.64 35.75 14.64Z"></path></g><defs data-v-fde0c5aa=""><linearGradient data-v-fde0c5aa="" gradientTransform="rotate(25)" id="bc60c0ac-8274-4c90-b699-9dc8991ef8f7" x1="0%" y1="0%" x2="100%" y2="0%"><stop data-v-fde0c5aa="" offset="0%" stop-color="#D6D6D6" stop-opacity="1"></stop><stop data-v-fde0c5aa="" offset="100%" stop-color="#0000EE" stop-opacity="1"></stop></linearGradient></defs><g data-v-fde0c5aa="" id="a84aac38-7495-4df3-a82d-9f0ffc06ee0c" stroke="none" fill="url(#bc60c0ac-8274-4c90-b699-9dc8991ef8f7)" transform="matrix(0.7956094741821289,0,0,0.7956094741821289,38.408781056868435,110.23040389495495)"><path style="text-indent:0;text-align:start;line-height:normal;text-transform:none;block-progression:tb;marker:none;-inkscape-font-specification:Sans" d="M4.688 13A3 3 0 0 0 2 16v44a3 3 0 0 0 3 3h43a3 3 0 1 0 0-6H8V19h84v38h-9.813l-24.062-9.781A3 3 0 0 0 56.656 47a3 3 0 0 0-2.437 4.125l13 32a3 3 0 0 0 5.562-.031l1.313-3.281 6.281 6.28a3 3 0 0 0 4.25 0l8.5-8.5a3 3 0 0 0 0-4.218l-6.281-6.281 3.281-1.313A3 3 0 0 0 92 63h3a3 3 0 0 0 3-3V16a3 3 0 0 0-3-3H5a3 3 0 0 0-.313 0zm29.375 8.938a3 3 0 0 0-2.782 1.78l-12 26a3 3 0 1 0 5.438 2.532l12-26a3 3 0 0 0-2.657-4.313zm10 0a3 3 0 0 0-2.782 1.78l-12 26a3 3 0 1 0 5.438 2.532l12-26a3 3 0 0 0-2.657-4.313zM15 29a3 3 0 1 0 0 6 3 3 0 0 0 0-6zm0 12a3 3 0 1 0 0 6 3 3 0 0 0 0-6zm47.469 14.469l18.5 7.5-.594.25a3 3 0 0 0-1 4.906L86.75 75.5l-4.25 4.25-7.375-7.375a3 3 0 0 0-4.906 1l-.219.594-7.531-18.5z" font-weight="400" color="#000" overflow="visible" font-family="Sans"></path></g><!----></svg>